<svg width="22" height="22" viewBox="0 0 22 22" fill="none" xmlns="http://www.w3.org/2000/svg">
<path d="M2.16723 11.8777C1.8194 9.46042 1.64549 8.25177 2.14092 7.21837C2.63634 6.18498 3.69084 5.55682 5.79983 4.3005L7.06927 3.54431C8.98445 2.40344 9.94204 1.83301 11.0002 1.83301C12.0583 1.83301 13.0159 2.40344 14.9311 3.5443L16.2005 4.3005C18.3095 5.55682 19.364 6.18498 19.8594 7.21837C20.3548 8.25177 20.1809 9.46042 19.8331 11.8777L19.5776 13.6536C19.1308 16.7588 18.9074 18.3113 17.8302 19.2388C16.7531 20.1663 15.1734 20.1663 12.0141 20.1663H9.98626C6.82692 20.1663 5.24725 20.1663 4.1701 19.2388C3.09296 18.3113 2.86956 16.7588 2.42276 13.6536L2.16723 11.8777Z" stroke="#1C274C" stroke-width="1.5"/>
<path d="M11 13.75L11 16.5" stroke="#1C274C" stroke-width="1.5" stroke-linecap="round"/>
</svg>
