<svg width="22" height="22" viewBox="0 0 22 22" fill="none" xmlns="http://www.w3.org/2000/svg">
<path d="M2.75 20.167H19.25" stroke="#1C274C" stroke-width="1.5" stroke-linecap="round" stroke-linejoin="round"/>
<path d="M2.75 10.0833C2.75 9.21909 2.75 8.78697 3.01849 8.51849C3.28697 8.25 3.71909 8.25 4.58333 8.25C5.44757 8.25 5.8797 8.25 6.14818 8.51849C6.41667 8.78697 6.41667 9.21909 6.41667 10.0833V15.5833C6.41667 16.4476 6.41667 16.8797 6.14818 17.1482C5.8797 17.4167 5.44757 17.4167 4.58333 17.4167C3.71909 17.4167 3.28697 17.4167 3.01849 17.1482C2.75 16.8797 2.75 16.4476 2.75 15.5833V10.0833Z" stroke="#1C274C" stroke-width="1.5"/>
<path d="M9.1665 6.41634C9.1665 5.5521 9.1665 5.11998 9.43499 4.85149C9.70347 4.58301 10.1356 4.58301 10.9998 4.58301C11.8641 4.58301 12.2962 4.58301 12.5647 4.85149C12.8332 5.11998 12.8332 5.5521 12.8332 6.41634V15.583C12.8332 16.4472 12.8332 16.8794 12.5647 17.1479C12.2962 17.4163 11.8641 17.4163 10.9998 17.4163C10.1356 17.4163 9.70347 17.4163 9.43499 17.1479C9.1665 16.8794 9.1665 16.4472 9.1665 15.583V6.41634Z" stroke="#1C274C" stroke-width="1.5"/>
<path d="M15.5835 3.66634C15.5835 2.8021 15.5835 2.36998 15.852 2.10149C16.1205 1.83301 16.5526 1.83301 17.4168 1.83301C18.2811 1.83301 18.7132 1.83301 18.9817 2.10149C19.2502 2.36998 19.2502 2.8021 19.2502 3.66634V15.583C19.2502 16.4472 19.2502 16.8794 18.9817 17.1479C18.7132 17.4163 18.2811 17.4163 17.4168 17.4163C16.5526 17.4163 16.1205 17.4163 15.852 17.1479C15.5835 16.8794 15.5835 16.4472 15.5835 15.583V3.66634Z" stroke="#1C274C" stroke-width="1.5"/>
</svg>
