<svg width="22" height="22" viewBox="0 0 22 22" fill="none" xmlns="http://www.w3.org/2000/svg">
<path d="M17.4168 16.4997H18.1668H17.4168ZM4.5835 13.3683H5.3335C5.3335 13.0702 5.15695 12.8004 4.88377 12.681L4.5835 13.3683ZM17.4168 13.3683L17.1165 12.681C16.8434 12.8004 16.6668 13.0702 16.6668 13.3683H17.4168ZM14.3752 6.41634C14.3752 6.83055 14.7109 7.16634 15.1252 7.16634C15.5394 7.16634 15.8752 6.83055 15.8752 6.41634H14.3752ZM6.12516 6.41634C6.12516 6.83055 6.46095 7.16634 6.87516 7.16634C7.28938 7.16634 7.62516 6.83055 7.62516 6.41634H6.12516ZM6.41683 3.83301C3.47131 3.83301 1.0835 6.22082 1.0835 9.16634H2.5835C2.5835 7.04925 4.29974 5.33301 6.41683 5.33301V3.83301ZM15.5835 5.33301C17.7006 5.33301 19.4168 7.04925 19.4168 9.16634H20.9168C20.9168 6.22082 18.529 3.83301 15.5835 3.83301V5.33301ZM13.7502 19.4163H8.25016V20.9163H13.7502V19.4163ZM8.25016 19.4163C7.36472 19.4163 6.77608 19.4147 6.33843 19.3559C5.92236 19.3 5.75671 19.2049 5.6508 19.099L4.59014 20.1597C5.0212 20.5908 5.55615 20.7642 6.13856 20.8425C6.6994 20.9179 7.40712 20.9163 8.25016 20.9163V19.4163ZM3.8335 16.4997C3.8335 17.3427 3.8319 18.0504 3.90731 18.6113C3.98561 19.1937 4.15907 19.7286 4.59014 20.1597L5.6508 19.099C5.54489 18.9931 5.44987 18.8275 5.39393 18.4114C5.33509 17.9738 5.3335 17.3851 5.3335 16.4997H3.8335ZM16.6668 16.4997C16.6668 17.3851 16.6652 17.9738 16.6064 18.4114C16.5505 18.8275 16.4554 18.9931 16.3495 19.099L17.4102 20.1597C17.8412 19.7286 18.0147 19.1937 18.093 18.6113C18.1684 18.0504 18.1668 17.3427 18.1668 16.4997H16.6668ZM13.7502 20.9163C14.5932 20.9163 15.3009 20.9179 15.8618 20.8425C16.4442 20.7642 16.9791 20.5908 17.4102 20.1597L16.3495 19.099C16.2436 19.2049 16.078 19.3 15.6619 19.3559C15.2242 19.4147 14.6356 19.4163 13.7502 19.4163V20.9163ZM6.41683 5.33301C6.60965 5.33301 6.79869 5.34718 6.98308 5.37444L7.20241 3.89056C6.94564 3.85261 6.68329 3.83301 6.41683 3.83301V5.33301ZM11.0002 1.08301C8.8546 1.08301 7.03461 2.4686 6.38247 4.39163L7.80301 4.87337C8.25501 3.54052 9.51674 2.58301 11.0002 2.58301V1.08301ZM6.38247 4.39163C6.21543 4.88421 6.12516 5.41134 6.12516 5.95801H7.62516C7.62516 5.57731 7.6879 5.21281 7.80301 4.87337L6.38247 4.39163ZM15.5835 3.83301C15.317 3.83301 15.0547 3.85261 14.7979 3.89056L15.0172 5.37444C15.2016 5.34718 15.3907 5.33301 15.5835 5.33301V3.83301ZM11.0002 2.58301C12.4836 2.58301 13.7453 3.54052 14.1973 4.87337L15.6178 4.39163C14.9657 2.4686 13.1457 1.08301 11.0002 1.08301V2.58301ZM14.1973 4.87337C14.3124 5.21281 14.3752 5.57731 14.3752 5.95801H15.8752C15.8752 5.41134 15.7849 4.88421 15.6178 4.39163L14.1973 4.87337ZM5.3335 16.4997V13.3683H3.8335V16.4997H5.3335ZM4.88377 12.681C3.52835 12.0888 2.5835 10.7371 2.5835 9.16634H1.0835C1.0835 11.3545 2.40115 13.2333 4.28322 14.0556L4.88377 12.681ZM16.6668 13.3683L16.6668 16.4997H18.1668L18.1668 13.3683L16.6668 13.3683ZM19.4168 9.16634C19.4168 10.7371 18.472 12.0888 17.1165 12.681L17.7171 14.0556C19.5992 13.2333 20.9168 11.3545 20.9168 9.16634H19.4168ZM14.3752 5.95801V6.41634H15.8752V5.95801H14.3752ZM6.12516 5.95801V6.41634H7.62516V5.95801H6.12516Z" fill="#1C274C"/>
<path d="M4.5835 16.5H17.4168" stroke="#1C274C" stroke-width="1.5" stroke-linecap="round" stroke-linejoin="round"/>
</svg>
